:SAMPLES-PER-SECOND 30
:FRAME-RANGE 1-1770
:FULLY-SPECIFIED
:DEGREES
1217
root  -51.416 39.0319 -40.7167 -161.475 78.2682 -168.882
RightUpLeg  -24.3242 -4.37131 4.28474
RightLeg  36.5272 -10.284 -8.32579
RightFoot  -12.4541 -0.0528147 3.25651
RightToes  -1.33073e-015 0 -3.6325e-017
Spine  -1.78485 -1.57542 -6.68162
Spine1  5.24312 -1.57778 0.401148
HEad  9.59225 -20.092 11.7161
LeftShoulder1  0.991536 -0.647838 -18.7781
LeftArm  5.59619 9.07353 -30.1097
LeftForeArm  22.9394 -11.4917 -10.1615
LeftHand  -0.0738458 4.4091 6.62182
RightShoulder  0.983528 -0.330147 26.9283
RightArm  -26.3215 -3.09695 52.0543
RightForeArm  73.2385 -5.1133 3.13531
RightHand  0.0125543 -5.64987 -13.3964
LeftUpLeg  -12.4457 10.2585 8.19168
LeftLeg  21.5164 9.31432 4.28659
LeftFoot  -12.5924 -0.0437423 -10.8719
LeftToes  1.09107e-011 -1.16422e-010 2.98337e-011
1218
root  -51.2158 39.1198 -40.9871 -151.595 82.1823 -159.569
RightUpLeg  -25.0676 -5.83313 6.77592
RightLeg  30.3252 -12.4506 -7.97943
RightFoot  -11.7469 -0.0701568 2.68055
RightToes  -1.33073e-015 0 -3.6325e-017
Spine  -1.74175 -1.68899 -6.41883
Spine1  5.16417 -1.64048 0.549274
HEad  8.60533 -18.8197 11.1013
LeftShoulder1  1.06898 -0.9192 -19.019
LeftArm  5.67579 9.60265 -29.6683
LeftForeArm  24.0075 -10.5996 -10.6204
LeftHand  -0.0675505 4.51042 6.47582
RightShoulder  1.01285 -0.22542 26.7581
RightArm  -24.8453 -1.78844 52.6623
RightForeArm  73.3681 -4.96711 3.80749
RightHand  0.0246346 -5.7598 -13.3296
LeftUpLeg  -11.1848 11.1316 8.02023
LeftLeg  20.599 12.595 5.25289
LeftFoot  -12.7245 -0.0612284 -11.3402
LeftToes  1.09107e-011 -1.16422e-010 2.98337e-011
1219
root  -50.9725 39.2442 -41.2128 -129.556 85.0287 -138.253
RightUpLeg  -25.3621 -7.75182 9.43788
RightLeg  22.898 -13.8158 -6.51871
RightFoot  -10.2014 -0.0894366 2.03554
RightToes  -1.33073e-015 0 -3.6325e-017
Spine  -1.88315 -1.83492 -5.93532
Spine1  5.22431 -1.81413 0.946973
HEad  7.98086 -17.9978 10.7922
LeftShoulder1  1.13718 -1.16048 -19.1928
LeftArm  4.35879 9.47211 -30.1779
LeftForeArm  26.7026 -8.46056 -11.4057
LeftHand  -0.0611382 4.6134 6.27861
RightShoulder  1.03493 -0.139147 26.5578
RightArm  -24.0606 -0.665957 52.9796
RightForeArm  73.1312 -3.89386 4.2766
RightHand  -0.0195257 -5.36389 -13.4948
LeftUpLeg  -9.98152 11.3427 7.97067
LeftLeg  19.2275 16.1058 5.99443
LeftFoot  -12.434 -0.0396508 -11.9107
LeftToes  1.09107e-011 -1.16422e-010 2.98337e-011
1220
root  -50.6597 39.3313 -41.3645 -90.2077 86.2191 -99.6334
RightUpLeg  -25.2287 -9.20806 11.5365
RightLeg  15.4973 -15.3731 -4.59735
RightFoot  -8.47567 -0.102502 1.79812
RightToes  -1.33073e-015 0 -3.6325e-017
Spine  -2.18205 -1.92117 -5.69035
Spine1  5.42212 -1.99818 1.54313
HEad  8.18361 -17.7208 10.6652
LeftShoulder1  1.22325 -1.49038 -19.241
LeftArm  1.67932 8.82147 -31.791
LeftForeArm  30.3389 -5.43075 -11.9949
LeftHand  -0.0546143 4.71015 5.92532
RightShoulder  1.05928 -0.0533195 26.4459
RightArm  -23.4135 0.138545 52.8639
RightForeArm  72.5554 -3.07182 4.65481
RightHand  0.01044 -5.61114 -14.1616
LeftUpLeg  -8.85208 11.7651 7.93618
LeftLeg  17.9271 18.8843 6.20507
LeftFoot  -12.2231 -0.0221436 -12.3236
LeftToes  1.09107e-011 -1.16422e-010 2.98337e-011
1221
root  -50.2759 39.3783 -41.4669 -54.1141 85.7153 -64.203
RightUpLeg  -24.4667 -1.71739 8.69855
RightLeg  9.54328 -27.3263 -1.3935
RightFoot  -7.4373 -0.0842137 0.98986
RightToes  -1.33073e-015 0 -3.6325e-017
Spine  -2.53108 -2.01473 -5.43272
Spine1  5.71471 -2.1618 1.89842
HEad  8.7419 -17.5803 10.8206
LeftShoulder1  1.30918 -1.82596 -19.2497
LeftArm  0.639162 7.77991 -34.0649
LeftForeArm  31.9692 -3.11685 -12.3691
LeftHand  -0.0304886 5.22368 5.24651
RightShoulder  1.06052 -0.043488 26.3836
RightArm  -23.1123 0.754784 52.4049
RightForeArm  71.6825 -2.5351 4.83873
RightHand  0.00352529 -5.5475 -14.4463
LeftUpLeg  -7.66837 11.583 7.67594
LeftLeg  16.6211 21.6495 6.26329
LeftFoot  -12.0573 -0.00814198 -12.7798
LeftToes  1.09107e-011 -1.16422e-010 2.98337e-011
1222
root  -49.7999 39.3526 -41.531 -31.1335 84.7581 -41.6369
RightUpLeg  -23.9375 3.23673 6.51464
RightLeg  4.6061 -35.9768 1.32753
RightFoot  -7.54689 -0.0597628 0.258934
RightToes  -1.33073e-015 0 -3.6325e-017
Spine  -2.78492 -2.17973 -5.38017
Spine1  5.90811 -2.33682 1.99391
HEad  9.28614 -17.4325 10.7968
LeftShoulder1  1.40951 -2.16309 -19.5332
LeftArm  -0.871319 6.68882 -36.6213
LeftForeArm  34.1054 -1.24936 -12.3102
LeftHand  -0.0203883 5.50223 4.66802
RightShoulder  1.07955 0.0439799 26.096
RightArm  -23.6155 1.32835 51.9907
RightForeArm  71.5207 -2.81778 4.50254
RightHand  -0.0365693 -5.21882 -14.5957
LeftUpLeg  -6.30833 10.8607 6.96962
LeftLeg  15.5733 24.3418 6.29197
LeftFoot  -12.0887 -0.0156583 -13.4119
LeftToes  1.09107e-011 -1.16422e-010 2.98337e-011
1223
root  -49.2052 39.2794 -41.5719 -16.5698 83.8897 -27.2603
RightUpLeg  -23.5121 3.74644 5.674
RightLeg  2.57763 -38.48 2.56478
RightFoot  -7.64895 -0.0281173 -0.735643
RightToes  -1.33073e-015 0 -3.6325e-017
Spine  -3.28948 -2.374 -5.12595
Spine1  6.3586 -2.5495 1.96734
HEad  9.83521 -17.3801 10.1033
LeftShoulder1  1.5257 -2.49724 -20.0912
LeftArm  -1.31717 5.36262 -39.4099
LeftForeArm  34.8204 -0.034326 -12.3441
LeftHand  -0.0129361 5.7357 4.46593
RightShoulder  1.07288 0.0692127 25.6366
RightArm  -24.152 1.5021 51.4369
RightForeArm  71.6431 -3.18358 4.1469
RightHand  -0.0108497 -5.42585 -14.7861
LeftUpLeg  -4.72397 10.0697 6.02166
LeftLeg  14.6194 26.4805 6.16233
LeftFoot  -12.2499 -0.0394168 -14.1285
LeftToes  1.09107e-011 -1.16422e-010 2.98337e-011
1224
root  -48.4926 39.2485 -41.5736 -7.06514 82.8295 -17.6438
RightUpLeg  -23.1506 2.48184 5.41437
RightLeg  4.08222 -37.75 2.01583
RightFoot  -6.16282 0.0307592 -1.60307
RightToes  -1.33073e-015 0 -3.6325e-017
Spine  -4.12601 -2.31807 -4.21537
Spine1  7.19837 -2.59764 1.92618
HEad  10.6355 -17.3974 8.67445
LeftShoulder1  1.61958 -2.73123 -20.6665
LeftArm  -1.60734 3.90657 -42.7427
LeftForeArm  35.2008 1.00874 -12.3701
LeftHand  -0.00524407 5.9469 4.56165
RightShoulder  1.0458 0.0227413 25.2429
RightArm  -23.9907 1.20834 50.3036
RightForeArm  70.909 -3.42026 4.22016
RightHand  0.0522056 -5.93124 -14.7817
LeftUpLeg  -2.29076 9.23832 5.17367
LeftLeg  12.7272 28.6026 5.55302
LeftFoot  -11.9259 -0.00618141 -15.0791
LeftToes  1.09107e-011 -1.16422e-010 2.98337e-011
1225
root  -47.7119 39.2772 -41.4873 -4.9904 81.1541 -15.1925
RightUpLeg  -22.6098 2.33292 6.05173
RightLeg  6.31224 -35.9244 0.4202
RightFoot  -4.14641 0.109907 -2.19406
RightToes  -1.33073e-015 0 -3.6325e-017
Spine  -4.54762 -1.86939 -2.32211
Spine1  7.65446 -2.33773 1.8885
HEad  11.7427 -17.2941 7.13117
LeftShoulder1  1.64485 -2.64797 -21.5198
LeftArm  -1.62733 2.27706 -46.0923
LeftForeArm  35.1628 1.88674 -12.4722
LeftHand  0.00455565 6.25911 4.44762
RightShoulder  1.02095 -0.0879756 25.5589
RightArm  -24.1317 1.18164 48.536
RightForeArm  70.4607 -4.58634 3.99042
RightHand  0.139752 -6.54517 -15.7461
LeftUpLeg  0.135028 9.31784 5.33175
LeftLeg  11.8784 29.8404 5.31741
LeftFoot  -11.1433 0.0959767 -17.0078
LeftToes  1.09107e-011 -1.16422e-010 2.98337e-011
1226
root  -46.9008 39.2728 -41.2864 -3.33083 78.7503 -13.0454
RightUpLeg  -21.7661 -0.277522 7.46228
RightLeg  8.57676 -30.8643 -0.194683
RightFoot  -4.19204 0.100562 -2.06364
RightToes  -1.33073e-015 0 -3.6325e-017
Spine  -4.88787 -1.45161 -0.863815
Spine1  7.73972 -1.94435 1.78248
HEad  13.0109 -16.1489 5.74726
LeftShoulder1  1.58413 -2.29721 -22.2053
LeftArm  -2.01296 1.47824 -49.5054
LeftForeArm  35.2424 2.10438 -12.3757
LeftHand  0.0117791 6.41963 4.62876
RightShoulder  1.07055 0.0141313 26.1131
RightArm  -24.6699 2.02359 47.1618
RightForeArm  69.5482 -5.34371 3.64162
RightHand  0.155994 -6.5515 -17.1018
LeftUpLeg  1.51319 11.6596 6.12594
LeftLeg  14.1913 28.6188 6.11482
LeftFoot  -10.2883 0.250471 -20.4014
LeftToes  1.09107e-011 -1.16422e-010 2.98337e-011
1227
root  -46.1322 39.3229 -41.0001 -0.356226 76.8372 -9.72241
RightUpLeg  -20.7843 -0.431212 7.8593
RightLeg  9.8402 -28.7081 -1.03505
RightFoot  -4.13283 0.131001 -2.52287
RightToes  -1.33073e-015 0 -3.6325e-017
Spine  -5.68634 -1.44099 -0.552122
Spine1  8.25889 -2.09956 2.3439
HEad  14.6492 -14.3953 4.62998
LeftShoulder1  1.61763 -2.46864 -21.9305
LeftArm  -2.60393 1.66276 -53.2547
LeftForeArm  35.0745 1.63114 -12.2047
LeftHand  0.0107527 6.37145 4.69773
RightShoulder  1.1119 0.155542 25.9955
RightArm  -26.7712 2.75941 47.4876
RightForeArm  70.2827 -5.11776 2.46088
RightHand  0.188364 -6.70606 -17.8724
LeftUpLeg  1.66725 18.309 7.12711
LeftLeg  17.8056 22.3378 7.27883
LeftFoot  -8.17526 0.7162 -23.8433
LeftToes  1.09107e-011 -1.16422e-010 2.98337e-011
1228
root  -45.3929 39.3681 -40.6529 2.03713 75.5638 -6.87125
RightUpLeg  -19.5231 -1.14718 7.78463
RightLeg  10.8188 -26.8329 -0.939684
RightFoot  -5.03232 0.167103 -3.64701
RightToes  -1.33073e-015 0 -3.6325e-017
Spine  -6.22507 -1.7684 -0.235248
Spine1  8.58689 -2.49007 2.68205
HEad  16.3718 -13.1119 3.79043
LeftShoulder1  1.64794 -2.66372 -21.4976
LeftArm  -1.56914 1.33777 -56.3326
LeftForeArm  35.3514 0.94019 -12.5718
LeftHand  -0.00332613 6.00436 4.5513
RightShoulder  1.11206 0.162982 25.9284
RightArm  -28.7911 2.44755 48.3017
RightForeArm  71.1167 -4.88983 1.30337
RightHand  0.234819 -7.08667 -17.1516
LeftUpLeg  0.374965 21.4384 8.05007
LeftLeg  23.815 18.1081 8.85701
LeftFoot  -4.68504 1.45126 -24.1515
LeftToes  1.09107e-011 -1.16422e-010 2.98337e-011
